<?xml version="1.0" encoding="utf-8"?>
<!-- Generator: Adobe Illustrator 16.0.0, SVG Export Plug-In . SVG Version: 6.00 Build 0)  -->
<!DOCTYPE svg PUBLIC "-//W3C//DTD SVG 1.1//EN" "http://www.w3.org/Graphics/SVG/1.1/DTD/svg11.dtd">
<svg version="1.1" id="Layer_1" xmlns="http://www.w3.org/2000/svg" xmlns:xlink="http://www.w3.org/1999/xlink" x="0px" y="0px"
	 width="242px" height="44px" viewBox="0 0 242 44" enable-background="new 0 0 242 44" xml:space="preserve">
<g>
	<path fill="#020304" d="M138.131,11.503c0,0.984,0.982,19.305,0,19.305h-9.951c-0.984,0-0.891-18.321-0.891-19.305l-1.76-0.141
		c0-0.984,2.109-4.573,3.094-4.573l8.182,1.15c0.984,0,2.406,2.515,2.406,3.499L138.131,11.503z"/>
	<path fill="#020304" d="M205.852,2.593h-4.01l-2.674,5.347l-2.672-5.347h-6.014l-2.674,5.347l-2.674-5.347h-3.934
		c-0.986,0-1.783,0.798-1.783,1.782v24.651c0,0.984,0.797,1.782,1.783,1.782h9.652l2.672-5.346l2.674,5.346h9.652
		c0.984,0,1.781-0.798,1.781-1.782V4.375C207.633,3.391,206.836,2.593,205.852,2.593z"/>
	<path fill="#020304" d="M59.282,2.593h-9.652L46.957,7.94l-2.673-5.347H34.63c-0.984,0-1.782,0.798-1.782,1.782l6.683,12.326
		c0,0.984-0.985,14.107,0,14.107h13.721c0.984,0,0-14.107,1.426-14.107l6.386-12.326C61.064,3.391,60.266,2.593,59.282,2.593z"/>
	<path fill="#020304" d="M29.433,2.593h-9.652L17.107,7.94l-2.673-5.347H4.782C3.798,2.593,3,3.391,3,4.375v24.651
		c0,0.984,0.798,1.782,1.782,1.782h4.159l2.672-5.346l2.673,5.346h5.791l2.673-5.346l2.673,5.346h4.009
		c0.984,0,1.782-0.798,1.782-1.782h0V4.375C31.215,3.391,30.417,2.593,29.433,2.593z"/>
	<path fill="#020304" d="M236.977,3.336h-6.104l-2.598,5.198l-2.6-5.198h-13.35c-0.984,0-1.783,0.798-1.783,1.782V29.77
		c0,0.983,0.799,1.781,1.783,1.781h6.816l2.598-5.197l2.6,5.197h12.637c0.984,0,1.781-0.798,1.781-1.781V5.118
		C238.758,4.134,237.961,3.336,236.977,3.336z"/>
	<path fill="#020304" d="M82.882,17.443l5.326-2.662c-1.07-6.97-7.092-12.309-14.362-12.309c-8.025,0-14.531,6.506-14.531,14.531
		s6.506,14.531,14.531,14.531c6.986,0,12.819-4.931,14.212-11.502L82.882,17.443z"/>
	<path fill="#020304" d="M103.832,2.17c-8.025,0-14.531,6.505-14.531,14.531s6.506,14.531,14.531,14.531
		c8.025,0,14.531-6.506,14.531-14.531S111.857,2.17,103.832,2.17z M101.01,19.522l2.821-5.643l2.822,5.643H101.01z"/>
	<path fill="#020304" d="M163.381,2.17c-8.025,0-14.531,6.505-14.531,14.531s6.506,14.531,14.531,14.531s14.529-6.506,14.529-14.531
		S171.406,2.17,163.381,2.17z M163.381,19.522l-2.822-5.643h5.643L163.381,19.522z"/>
</g>
<g>
	<rect x="21.269" y="35.17" fill="none" width="240.015" height="11.66"/>
	<path fill="#010202" d="M26.954,35.169h1.015v4.003c0,0.543-0.04,0.951-0.119,1.228c-0.079,0.276-0.177,0.506-0.292,0.688
		c-0.116,0.185-0.259,0.348-0.427,0.492c-0.559,0.481-1.289,0.723-2.191,0.723c-0.919,0-1.656-0.239-2.211-0.717
		c-0.168-0.148-0.311-0.314-0.426-0.498c-0.116-0.184-0.212-0.408-0.288-0.674s-0.114-0.683-0.114-1.252v-3.993h1.015v4.003
		c0,0.664,0.076,1.125,0.227,1.384c0.152,0.259,0.382,0.467,0.692,0.624c0.31,0.156,0.675,0.234,1.096,0.234
		c0.599,0,1.087-0.156,1.464-0.47c0.198-0.169,0.342-0.367,0.429-0.596s0.131-0.621,0.131-1.177V35.169L26.954,35.169z"/>
	<path fill="#010202" d="M30.772,42.223v-7.054h1.767c0.713,0,1.279,0.177,1.699,0.529c0.418,0.354,0.628,0.832,0.628,1.435
		c0,0.41-0.103,0.766-0.308,1.065c-0.206,0.3-0.5,0.523-0.884,0.672c0.226,0.147,0.446,0.35,0.662,0.605s0.518,0.702,0.909,1.338
		c0.246,0.4,0.442,0.702,0.591,0.903l0.374,0.506h-1.202l-0.308-0.466c-0.01-0.017-0.03-0.045-0.061-0.086l-0.196-0.277
		l-0.313-0.516l-0.337-0.55c-0.209-0.29-0.399-0.521-0.573-0.692c-0.173-0.171-0.33-0.295-0.47-0.37
		c-0.14-0.076-0.375-0.113-0.705-0.113h-0.263v3.069L30.772,42.223L30.772,42.223z M32.085,36.027h-0.303v2.227h0.384
		c0.511,0,0.862-0.044,1.052-0.132c0.19-0.087,0.338-0.22,0.445-0.396c0.105-0.177,0.159-0.378,0.159-0.603
		c0-0.223-0.059-0.424-0.176-0.604c-0.118-0.181-0.284-0.308-0.498-0.381C32.934,36.063,32.58,36.027,32.085,36.027z"/>
	<path fill="#010202" d="M40.751,42.223h-2.388v-7.054h1.848c0.582,0,1.037,0.078,1.363,0.234c0.326,0.156,0.576,0.372,0.747,0.646
		c0.172,0.274,0.257,0.592,0.257,0.952c0,0.693-0.358,1.189-1.075,1.488c0.515,0.099,0.925,0.311,1.229,0.637
		c0.305,0.327,0.457,0.717,0.457,1.172c0,0.359-0.092,0.682-0.277,0.964c-0.186,0.282-0.457,0.514-0.815,0.692
		C41.738,42.133,41.289,42.223,40.751,42.223z M40.241,36.067h-0.868v2.12h0.671c0.539,0,0.921-0.103,1.149-0.308
		c0.227-0.205,0.341-0.471,0.341-0.798C41.534,36.405,41.103,36.067,40.241,36.067z M40.317,39.087h-0.944v2.236h0.994
		c0.552,0,0.927-0.043,1.124-0.129c0.197-0.086,0.355-0.22,0.475-0.401s0.179-0.377,0.179-0.586c0-0.215-0.063-0.412-0.189-0.59
		c-0.126-0.179-0.305-0.312-0.538-0.399C41.185,39.131,40.818,39.087,40.317,39.087z"/>
	<path fill="#010202" d="M48.018,35.129h0.71l3.162,7.094h-1.033l-0.94-2.091h-3.009l-0.881,2.091h-1.038L48.018,35.129z
		 M49.502,39.233l-1.138-2.555l-1.055,2.555H49.502z"/>
	<path fill="#010202" d="M59.642,35.169h0.959v7.054h-0.869l-4.715-5.433v5.433h-0.949v-7.054h0.818l4.756,5.478V35.169z"/>
	<path fill="#010202" d="M73.344,35.169h0.944v7.054h-1.015v-5.489l-2.168,2.727h-0.187l-2.194-2.727v5.488h-1.01v-7.053h0.956
		l2.344,2.896L73.344,35.169z"/>
	<path fill="#010202" d="M82.09,35.169h1.015v4.003c0,0.543-0.04,0.951-0.119,1.228s-0.177,0.506-0.293,0.688
		c-0.116,0.185-0.258,0.348-0.426,0.492c-0.559,0.481-1.29,0.723-2.191,0.723c-0.919,0-1.656-0.239-2.211-0.717
		c-0.168-0.148-0.311-0.314-0.427-0.498s-0.212-0.408-0.288-0.674c-0.076-0.266-0.114-0.683-0.114-1.252v-3.993h1.015v4.003
		c0,0.664,0.075,1.125,0.227,1.384c0.151,0.259,0.382,0.467,0.692,0.624c0.31,0.156,0.675,0.234,1.096,0.234
		c0.599,0,1.086-0.156,1.464-0.47c0.198-0.169,0.342-0.367,0.429-0.596s0.131-0.621,0.131-1.177V35.169z"/>
	<path fill="#010202" d="M87.625,39.267l-0.767-0.466c-0.481-0.294-0.824-0.583-1.027-0.868c-0.204-0.284-0.306-0.611-0.306-0.981
		c0-0.556,0.192-1.006,0.578-1.354c0.385-0.346,0.886-0.52,1.502-0.52c0.589,0,1.129,0.165,1.621,0.496v1.146
		c-0.508-0.489-1.055-0.734-1.641-0.734c-0.33,0-0.601,0.077-0.813,0.229s-0.318,0.348-0.318,0.586c0,0.211,0.078,0.408,0.234,0.593
		c0.156,0.186,0.408,0.379,0.753,0.581l0.771,0.456c0.86,0.515,1.29,1.169,1.29,1.963c0,0.565-0.188,1.024-0.568,1.379
		c-0.378,0.353-0.871,0.529-1.477,0.529c-0.697,0-1.331-0.214-1.903-0.643v-1.282c0.545,0.691,1.176,1.036,1.893,1.036
		c0.316,0,0.58-0.088,0.79-0.264c0.21-0.176,0.316-0.396,0.316-0.662C88.555,40.059,88.245,39.652,87.625,39.267z"/>
	<path fill="#010202" d="M96.963,35.169h1.01v7.054h-1.01v-3.07H93v3.07h-1.01v-7.054H93v3.05h3.963V35.169z"/>
	<path fill="#010202" d="M100.933,42.223v-7.054h1.767c0.713,0,1.28,0.177,1.699,0.529c0.419,0.354,0.628,0.832,0.628,1.435
		c0,0.41-0.103,0.766-0.308,1.065s-0.5,0.523-0.883,0.672c0.226,0.147,0.446,0.35,0.661,0.605c0.216,0.256,0.519,0.702,0.909,1.338
		c0.246,0.4,0.442,0.702,0.591,0.903l0.373,0.506h-1.202l-0.307-0.466c-0.01-0.017-0.03-0.045-0.061-0.086l-0.197-0.277
		l-0.313-0.516l-0.338-0.55c-0.208-0.29-0.399-0.521-0.573-0.692c-0.174-0.171-0.331-0.295-0.47-0.37
		c-0.14-0.076-0.375-0.113-0.705-0.113h-0.263v3.069L100.933,42.223L100.933,42.223z M102.246,36.027h-0.303v2.227h0.384
		c0.512,0,0.862-0.044,1.053-0.132c0.19-0.087,0.338-0.22,0.444-0.396c0.106-0.177,0.159-0.378,0.159-0.603
		c0-0.223-0.059-0.424-0.177-0.604c-0.118-0.181-0.283-0.308-0.497-0.381C103.095,36.063,102.741,36.027,102.246,36.027z"/>
	<path fill="#010202" d="M111.363,35.068c1.09,0,1.998,0.345,2.722,1.034c0.725,0.69,1.087,1.555,1.087,2.596
		c0,1.04-0.366,1.9-1.097,2.582c-0.732,0.682-1.654,1.022-2.768,1.022c-1.063,0-1.948-0.341-2.657-1.022
		c-0.708-0.682-1.062-1.536-1.062-2.563c0-1.054,0.356-1.925,1.069-2.615C109.372,35.413,110.274,35.068,111.363,35.068z
		 M111.404,36.027c-0.807,0-1.471,0.252-1.99,0.757c-0.52,0.505-0.779,1.149-0.779,1.934c0,0.761,0.261,1.394,0.782,1.898
		c0.521,0.505,1.174,0.758,1.957,0.758c0.787,0,1.444-0.258,1.97-0.772c0.526-0.516,0.789-1.156,0.789-1.924
		c0-0.747-0.263-1.376-0.789-1.886C112.817,36.282,112.17,36.027,111.404,36.027z"/>
	<path fill="#010202" d="M121.251,35.068c1.09,0,1.997,0.345,2.722,1.034c0.725,0.69,1.088,1.555,1.088,2.596
		c0,1.04-0.366,1.9-1.098,2.582s-1.654,1.022-2.768,1.022c-1.063,0-1.948-0.341-2.656-1.022s-1.062-1.536-1.062-2.563
		c0-1.054,0.356-1.925,1.07-2.615C119.26,35.413,120.161,35.068,121.251,35.068z M121.291,36.027c-0.807,0-1.47,0.252-1.989,0.757
		c-0.52,0.505-0.779,1.149-0.779,1.934c0,0.761,0.261,1.394,0.782,1.898c0.521,0.505,1.174,0.758,1.958,0.758
		c0.787,0,1.443-0.258,1.969-0.772c0.527-0.516,0.79-1.156,0.79-1.924c0-0.747-0.263-1.376-0.79-1.886
		C122.705,36.282,122.059,36.027,121.291,36.027z"/>
	<path fill="#010202" d="M133.287,35.169h0.943v7.054h-1.014v-5.489l-2.168,2.727h-0.188l-2.193-2.727v5.488h-1.01v-7.053h0.955
		l2.344,2.896L133.287,35.169z"/>
	<path fill="#010202" d="M147.453,40.586v1.111c-0.74,0.403-1.596,0.605-2.564,0.605c-0.789,0-1.457-0.158-2.004-0.475
		c-0.549-0.316-0.984-0.752-1.303-1.308c-0.32-0.556-0.48-1.156-0.48-1.802c0-1.027,0.365-1.891,1.098-2.591s1.635-1.05,2.709-1.05
		c0.74,0,1.563,0.193,2.469,0.581v1.086c-0.824-0.472-1.631-0.708-2.418-0.708c-0.809,0-1.479,0.256-2.012,0.766
		s-0.801,1.148-0.801,1.916c0,0.774,0.262,1.41,0.787,1.908c0.525,0.499,1.197,0.747,2.016,0.747
		C145.803,41.374,146.639,41.111,147.453,40.586z"/>
	<path fill="#010202" d="M154.979,35.169h1.014v4.003c0,0.543-0.039,0.951-0.119,1.228c-0.078,0.276-0.176,0.506-0.293,0.688
		c-0.115,0.185-0.258,0.348-0.426,0.492c-0.559,0.481-1.289,0.723-2.191,0.723c-0.918,0-1.656-0.239-2.211-0.717
		c-0.168-0.148-0.311-0.314-0.428-0.498c-0.115-0.184-0.211-0.408-0.287-0.674s-0.113-0.683-0.113-1.252v-3.993h1.014v4.003
		c0,0.664,0.076,1.125,0.229,1.384c0.15,0.259,0.381,0.467,0.691,0.624c0.309,0.156,0.674,0.234,1.096,0.234
		c0.598,0,1.086-0.156,1.463-0.47c0.199-0.169,0.342-0.367,0.43-0.596s0.131-0.621,0.131-1.177v-4.003H154.979z"/>
	<path fill="#010202" d="M158.766,35.169h1.01v6.134h3.176v0.92h-4.186V35.169L158.766,35.169z"/>
	<path fill="#010202" d="M163.574,35.158h5.893v0.899h-2.459v6.165h-1.016v-6.165h-2.418V35.158z"/>
	<path fill="#010202" d="M171.807,35.169h1.01v7.054h-1.01V35.169z"/>
	<path fill="#010202" d="M180.223,35.169h1.006l-2.982,7.083h-0.229l-3.039-7.083h1.016l2.123,4.952L180.223,35.169z"/>
	<path fill="#010202" d="M184.801,35.129h0.709l3.164,7.094h-1.033l-0.941-2.091h-3.01l-0.881,2.091h-1.037L184.801,35.129z
		 M186.285,39.233l-1.139-2.555l-1.055,2.555H186.285z"/>
	<path fill="#010202" d="M189.186,35.158h5.891v0.899h-2.459v6.165h-1.014v-6.165h-2.418V35.158z"/>
	<path fill="#010202" d="M197.416,35.169h1.01v7.054h-1.01V35.169z"/>
	<path fill="#010202" d="M204.828,35.068c1.09,0,1.996,0.345,2.721,1.034c0.725,0.69,1.088,1.555,1.088,2.596
		c0,1.04-0.365,1.9-1.098,2.582c-0.73,0.682-1.654,1.022-2.768,1.022c-1.063,0-1.947-0.341-2.656-1.022
		c-0.707-0.682-1.063-1.536-1.063-2.563c0-1.054,0.357-1.925,1.07-2.615C202.836,35.413,203.738,35.068,204.828,35.068z
		 M204.867,36.027c-0.807,0-1.471,0.252-1.99,0.757s-0.779,1.149-0.779,1.934c0,0.761,0.262,1.394,0.783,1.898
		s1.174,0.758,1.957,0.758c0.787,0,1.443-0.258,1.969-0.772c0.527-0.516,0.789-1.156,0.789-1.924c0-0.747-0.262-1.376-0.789-1.886
		C206.281,36.282,205.635,36.027,204.867,36.027z"/>
	<path fill="#010202" d="M216.857,35.169h0.961v7.054h-0.869l-4.717-5.433v5.433h-0.947v-7.054h0.816l4.756,5.478V35.169z"/>
</g>
<path fill="#020304" d="M119.022,16.701c0-8.025,6.505-14.531,14.53-14.531s14.531,6.506,14.531,14.531c0,0-6.506,0-14.531,0
	C125.527,16.701,119.022,16.701,119.022,16.701z"/>
</svg>
